<?xml version="1.0" encoding="UTF-8" standalone="no"?>
<!DOCTYPE svg PUBLIC "-//W3C//DTD SVG 1.1//EN" "http://www.w3.org/Graphics/SVG/1.1/DTD/svg11.dtd">
<svg width="100%" height="100%" viewBox="0 0 1286 1286" version="1.1" xmlns="http://www.w3.org/2000/svg" xmlns:xlink="http://www.w3.org/1999/xlink" xml:space="preserve" xmlns:serif="http://www.serif.com/" style="fill-rule:evenodd;clip-rule:evenodd;stroke-linecap:round;stroke-linejoin:round;stroke-miterlimit:1.5;">
    <g id="Artboard1" transform="matrix(1,0,0,1,-484.351,-911.923)">
        <rect x="484.351" y="911.923" width="1285.47" height="1285.47" style="fill:none;"/>
        <clipPath id="_clip1">
            <rect x="484.351" y="911.923" width="1285.47" height="1285.47"/>
        </clipPath>
        <g clip-path="url(#_clip1)">
            <g transform="matrix(0.761324,0,0,0.761324,269.36,371.336)">
                <circle cx="1127.09" cy="1555.51" r="822.341" style="fill:none;stroke:black;stroke-width:43.78px;"/>
            </g>
            <g transform="matrix(1,0,0,1,0.351105,0.923066)">
                <circle cx="938.853" cy="1290.71" r="75.713" style="fill:none;stroke:black;stroke-width:16.67px;"/>
            </g>
            <g transform="matrix(1,0,0,1,-111.855,11.6653)">
                <path d="M863.14,1868.67C863.14,1722.3 1031.69,1603.47 1239.29,1603.47C1446.9,1603.47 1615.44,1722.3 1615.44,1868.67" style="fill:none;stroke:black;stroke-width:25px;"/>
            </g>
            <g transform="matrix(1,0,0,1,0.351105,0.923066)">
                <circle cx="938.853" cy="1290.71" r="75.713" style="fill:none;stroke:black;stroke-width:41.67px;"/>
            </g>
            <g transform="matrix(1,0,0,1,412.211,35.8314)">
                <circle cx="938.853" cy="1290.71" r="75.713" style="fill:none;stroke:black;stroke-width:25px;"/>
            </g>
        </g>
    </g>
</svg>
